<svg xmlns="http://www.w3.org/2000/svg" style="display: none;">
  <symbol id="icon-arrow" viewBox="0 0 29 29" fill="none">
    <path stroke-linecap="round" stroke-width="2.37" d="M6.1 14.38h15.36m-5.9-7.08 6.25 6.25c.46.46.46 1.2 0 1.67l-6.25 6.25" />
  </symbol>
  <symbol id="icon-calculator" viewBox="0 0 16 18" stroke="none">
    <path
      d="M13.858.048c.83 0 1.592.763 1.592 1.592v13.793c0 .862-.763 1.591-1.592 1.591H2.188c-.863 0-1.592-.73-1.592-1.591V1.64c0-.83.73-1.592 1.591-1.592h11.671ZM4.84 14.505V13.21c0-.199-.232-.43-.431-.43H3.116c-.2 0-.398.231-.398.43v1.293c0 .2.199.398.398.398h1.293c.199 0 .43-.199.43-.397Zm0-4.245V8.967c0-.199-.232-.43-.431-.43H3.116c-.2 0-.398.231-.398.43v1.293c0 .2.199.398.398.398h1.293c.199 0 .43-.199.43-.398Zm4.244 4.245V13.21c0-.199-.232-.43-.431-.43H7.36c-.2 0-.398.231-.398.43v1.293c0 .2.199.398.398.398h1.293c.199 0 .43-.199.43-.397Zm0-4.245V8.967c0-.199-.232-.43-.431-.43H7.36c-.2 0-.398.231-.398.43v1.293c0 .2.199.398.398.398h1.293c.199 0 .43-.199.43-.398Zm4.244 4.245V8.966c0-.199-.232-.43-.431-.43h-1.293c-.2 0-.398.231-.398.43v5.537c0 .2.199.398.398.398h1.293c.199 0 .43-.199.43-.397Zm0-8.489V2.601c0-.199-.232-.43-.431-.43H3.116c-.2 0-.398.231-.398.43v3.415c0 .2.199.398.398.398h9.78c.2 0 .432-.199.432-.398Z" />
  </symbol>
  <symbol id="icon-clock" viewBox="0 0 14 15" stroke="none">
    <path
      d="M7 .97a6.78 6.78 0 1 1 0 13.56A6.78 6.78 0 0 1 7 .97Zm2.52 8.56c.05-.06.1-.17.1-.28 0-.13-.08-.24-.16-.32L7.87 7.75V3.81a.47.47 0 0 0-.43-.44h-.88a.45.45 0 0 0-.43.44v4.27c0 .35.13.65.4.85l1.84 1.36c.05.06.16.11.24.11.17 0 .28-.08.36-.19l.55-.68Z" />
  </symbol>
  <symbol id="icon-down" viewBox="0 0 31 30" stroke="none">
    <path
      d="M19.28 14.18c0 .05-.02.1-.06.15l-3.13 3.12a.19.19 0 0 1-.15.07.21.21 0 0 1-.15-.07l-3.12-3.12a.21.21 0 0 1-.07-.15c0-.06.02-.11.07-.15l.33-.34a.2.2 0 0 1 .15-.07.2.2 0 0 1 .16.07l2.63 2.63 2.64-2.63a.19.19 0 0 1 .15-.07c.05 0 .1.02.15.07l.34.34a.2.2 0 0 1 .06.15Z" />
  </symbol>
  <symbol id="icon-instagram" viewBox="0 0 27 27" stroke="none">
    <path
      d="M13.39 6.95a6.76 6.76 0 1 1 0 13.52 6.76 6.76 0 0 1 0-13.52Zm0 11.17a4.36 4.36 0 0 0 4.35-4.41 4.34 4.34 0 0 0-4.35-4.35 4.36 4.36 0 0 0-4.41 4.35c0 2.47 2 4.41 4.4 4.41Zm8.58-11.4a1.58 1.58 0 1 1-3.18 0c0-.9.71-1.6 1.6-1.6.88 0 1.58.7 1.58 1.6Zm4.47 1.58c.12 2.17.12 8.7 0 10.88-.11 2.12-.59 3.94-2.11 5.53-1.53 1.52-3.41 2-5.53 2.11-2.18.12-8.7.12-10.88 0-2.12-.11-3.94-.59-5.53-2.11C.86 23.1.4 21.3.27 19.18.16 17 .16 10.48.27 8.3c.12-2.12.6-4 2.12-5.53C3.98 1.24 5.8.77 7.92.65c2.17-.11 8.7-.11 10.88 0 2.11.12 4 .6 5.53 2.12 1.52 1.53 2 3.41 2.11 5.53Zm-2.82 13.17c.7-1.7.53-5.82.53-7.76 0-1.88.18-6-.53-7.76a4.43 4.43 0 0 0-2.47-2.47c-1.76-.7-5.88-.53-7.76-.53-1.94 0-6.06-.18-7.76.53A4.54 4.54 0 0 0 3.1 5.95c-.7 1.76-.53 5.88-.53 7.76 0 1.94-.18 6.06.53 7.76A4.46 4.46 0 0 0 5.63 24c1.7.7 5.82.53 7.76.53 1.88 0 6 .18 7.76-.53a4.36 4.36 0 0 0 2.47-2.53Z" />
  </symbol>
  <symbol id="icon-mail" viewBox="0 0 22 18" stroke="none">
    <path
      d="M21.47 6.38c.17-.13.43 0 .43.2v8.73c0 1.16-.94 2.06-2.06 2.06H2.05C.9 17.37 0 16.47 0 15.3V6.6c0-.21.21-.34.38-.21.99.77 2.23 1.7 6.6 4.87.89.64 2.43 2.05 3.97 2.05 1.5 0 3.08-1.4 3.93-2.05 4.37-3.16 5.6-4.1 6.59-4.87Zm-10.52 5.51c-1.03.05-2.44-1.24-3.17-1.75-5.68-4.1-6.11-4.5-7.4-5.52C.13 4.45 0 4.15 0 3.81V3C0 1.88.9.94 2.05.94h17.8c1.1 0 2.05.94 2.05 2.06v.8c0 .35-.17.65-.43.82-1.28 1.03-1.71 1.41-7.4 5.52-.73.51-2.14 1.8-3.12 1.75Z" />
  </symbol>
  <symbol id="icon-phone" viewBox="0 0 15 15" stroke="none">
    <path
      d="M14.48 1.43c.3.09.52.33.52.63C15 9.1 9.31 14.75 2.31 14.75a.65.65 0 0 1-.65-.5L1 11.42a.7.7 0 0 1 .38-.76l3.07-1.31a.67.67 0 0 1 .76.19l1.37 1.67a10.26 10.26 0 0 0 4.84-4.84L9.75 4.99a.68.68 0 0 1-.2-.77l1.32-3.06c.14-.3.47-.46.77-.38l2.84.65Z" />
  </symbol>
  <symbol id="icon-pin" viewBox="0 0 11 15" stroke="none">
    <path
      d="M4.97 14.48C.98 8.73.27 8.13.27 6a5.25 5.25 0 0 1 10.5 0c0 2.13-.74 2.73-4.73 8.48a.64.64 0 0 1-1.07 0Zm.55-6.3c1.2 0 2.19-.95 2.19-2.18a2.2 2.2 0 0 0-2.19-2.19c-1.23 0-2.19.99-2.19 2.19 0 1.23.96 2.19 2.19 2.19Z" />
  </symbol>
</svg>
